<?xml version="1.0" encoding="UTF-8" standalone="no"?>
<!DOCTYPE svg PUBLIC "-//W3C//DTD SVG 1.1//EN"
 "http://www.w3.org/Graphics/SVG/1.1/DTD/svg11.dtd">
<!-- Generated by graphviz version 12.2.1 (20241206.2353)
 -->
<!-- Pages: 1 -->
<svg width="506pt" height="91pt"
 viewBox="0.00 0.00 505.75 91.49" xmlns="http://www.w3.org/2000/svg" xmlns:xlink="http://www.w3.org/1999/xlink">
<g id="graph0" class="graph" transform="scale(1 1) rotate(0) translate(4 87.49)">
<polygon fill="white" stroke="none" points="-4,4 -4,-87.49 501.75,-87.49 501.75,4 -4,4"/>
<!-- &#45;1 -->
<g id="node1" class="node">
<title>&#45;1</title>
<polygon fill="lightgray" stroke="black" points="23.5,-83.49 0,-83.49 0,-64.99 23.5,-64.99 23.5,-83.49"/>
<text text-anchor="middle" x="11.75" y="-70.94" font-family="Times New Roman,serif" font-size="9.00">&#45;1</text>
</g>
<!-- 0 -->
<g id="node13" class="node">
<title>0</title>
<ellipse fill="lightblue" stroke="black" cx="242.75" cy="-14.5" rx="14.5" ry="14.5"/>
<text text-anchor="middle" x="242.75" y="-11.2" font-family="Times New Roman,serif" font-size="9.00">0</text>
</g>
<!-- &#45;1&#45;&gt;0 -->
<g id="edge1" class="edge">
<title>&#45;1&#45;&gt;0</title>
<path fill="none" stroke="red" stroke-width="0.25" d="M23.64,-68.23C26.59,-67.08 29.76,-65.93 32.75,-64.99 98.76,-44.36 178.79,-27.74 218.28,-20.08"/>
<polygon fill="red" stroke="red" stroke-width="0.25" points="218.77,-23.55 227.93,-18.23 217.45,-16.68 218.77,-23.55"/>
</g>
<!-- &#45;2 -->
<g id="node2" class="node">
<title>&#45;2</title>
<polygon fill="lightgray" stroke="black" points="65.5,-83.49 42,-83.49 42,-64.99 65.5,-64.99 65.5,-83.49"/>
<text text-anchor="middle" x="53.75" y="-70.94" font-family="Times New Roman,serif" font-size="9.00">&#45;2</text>
</g>
<!-- &#45;2&#45;&gt;0 -->
<g id="edge2" class="edge">
<title>&#45;2&#45;&gt;0</title>
<path fill="none" stroke="red" stroke-width="0.25" d="M65.68,-68.35C68.62,-67.19 71.79,-66.01 74.75,-64.99 125.4,-47.62 185.86,-30.73 218.67,-21.87"/>
<polygon fill="red" stroke="red" stroke-width="0.25" points="219.56,-25.26 228.31,-19.29 217.75,-18.5 219.56,-25.26"/>
</g>
<!-- &#45;3 -->
<g id="node3" class="node">
<title>&#45;3</title>
<polygon fill="lightgray" stroke="black" points="107.5,-83.49 84,-83.49 84,-64.99 107.5,-64.99 107.5,-83.49"/>
<text text-anchor="middle" x="95.75" y="-70.94" font-family="Times New Roman,serif" font-size="9.00">&#45;3</text>
</g>
<!-- &#45;3&#45;&gt;0 -->
<g id="edge3" class="edge">
<title>&#45;3&#45;&gt;0</title>
<path fill="none" stroke="red" stroke-width="0.39" d="M107.78,-68.52C132.18,-58.93 187.84,-37.07 219.54,-24.61"/>
<polygon fill="red" stroke="red" stroke-width="0.39" points="220.72,-27.91 228.74,-21 218.16,-21.4 220.72,-27.91"/>
</g>
<!-- &#45;4 -->
<g id="node4" class="node">
<title>&#45;4</title>
<polygon fill="lightgray" stroke="black" points="149.5,-83.49 126,-83.49 126,-64.99 149.5,-64.99 149.5,-83.49"/>
<text text-anchor="middle" x="137.75" y="-70.94" font-family="Times New Roman,serif" font-size="9.00">&#45;4</text>
</g>
<!-- &#45;4&#45;&gt;0 -->
<g id="edge4" class="edge">
<title>&#45;4&#45;&gt;0</title>
<path fill="none" stroke="red" stroke-width="0.24" d="M149.79,-66.62C167.17,-57.06 199.55,-39.25 221.13,-27.38"/>
<polygon fill="red" stroke="red" stroke-width="0.24" points="222.8,-30.46 229.87,-22.58 219.42,-24.33 222.8,-30.46"/>
</g>
<!-- &#45;5 -->
<g id="node5" class="node">
<title>&#45;5</title>
<polygon fill="lightgray" stroke="black" points="191.5,-83.49 168,-83.49 168,-64.99 191.5,-64.99 191.5,-83.49"/>
<text text-anchor="middle" x="179.75" y="-70.94" font-family="Times New Roman,serif" font-size="9.00">&#45;5</text>
</g>
<!-- &#45;5&#45;&gt;0 -->
<g id="edge5" class="edge">
<title>&#45;5&#45;&gt;0</title>
<path fill="none" stroke="red" stroke-width="1.51" d="M189.05,-64.72C198.14,-56.39 212.25,-43.45 223.73,-32.93"/>
<polygon fill="red" stroke="red" stroke-width="1.51" points="225.89,-35.69 230.9,-26.36 221.16,-30.53 225.89,-35.69"/>
</g>
<!-- &#45;6 -->
<g id="node6" class="node">
<title>&#45;6</title>
<polygon fill="lightgray" stroke="black" points="233.5,-83.49 210,-83.49 210,-64.99 233.5,-64.99 233.5,-83.49"/>
<text text-anchor="middle" x="221.75" y="-70.94" font-family="Times New Roman,serif" font-size="9.00">&#45;6</text>
</g>
<!-- &#45;6&#45;&gt;0 -->
<g id="edge6" class="edge">
<title>&#45;6&#45;&gt;0</title>
<path fill="none" stroke="green" stroke-width="0.67" d="M224.85,-64.72C227.34,-57.87 230.97,-47.9 234.3,-38.72"/>
<polygon fill="green" stroke="green" stroke-width="0.67" points="237.53,-40.09 237.66,-29.49 230.95,-37.7 237.53,-40.09"/>
</g>
<!-- &#45;7 -->
<g id="node7" class="node">
<title>&#45;7</title>
<polygon fill="lightgray" stroke="black" points="275.5,-83.49 252,-83.49 252,-64.99 275.5,-64.99 275.5,-83.49"/>
<text text-anchor="middle" x="263.75" y="-70.94" font-family="Times New Roman,serif" font-size="9.00">&#45;7</text>
</g>
<!-- &#45;7&#45;&gt;0 -->
<g id="edge7" class="edge">
<title>&#45;7&#45;&gt;0</title>
<path fill="none" stroke="red" stroke-width="0.99" d="M260.65,-64.72C258.21,-58.01 254.69,-48.33 251.41,-39.32"/>
<polygon fill="red" stroke="red" stroke-width="0.99" points="254.71,-38.15 248.01,-29.95 248.13,-40.54 254.71,-38.15"/>
</g>
<!-- &#45;8 -->
<g id="node8" class="node">
<title>&#45;8</title>
<polygon fill="lightgray" stroke="black" points="317.5,-83.49 294,-83.49 294,-64.99 317.5,-64.99 317.5,-83.49"/>
<text text-anchor="middle" x="305.75" y="-70.94" font-family="Times New Roman,serif" font-size="9.00">&#45;8</text>
</g>
<!-- &#45;8&#45;&gt;0 -->
<g id="edge8" class="edge">
<title>&#45;8&#45;&gt;0</title>
<path fill="none" stroke="green" stroke-width="0.26" d="M296.45,-64.72C287,-56.05 272.11,-42.41 260.41,-31.68"/>
<polygon fill="green" stroke="green" stroke-width="0.26" points="262.95,-29.26 253.21,-25.09 258.22,-34.42 262.95,-29.26"/>
</g>
<!-- &#45;9 -->
<g id="node9" class="node">
<title>&#45;9</title>
<polygon fill="lightgray" stroke="black" points="359.5,-83.49 336,-83.49 336,-64.99 359.5,-64.99 359.5,-83.49"/>
<text text-anchor="middle" x="347.75" y="-70.94" font-family="Times New Roman,serif" font-size="9.00">&#45;9</text>
</g>
<!-- &#45;9&#45;&gt;0 -->
<g id="edge9" class="edge">
<title>&#45;9&#45;&gt;0</title>
<path fill="none" stroke="green" stroke-width="0.27" d="M335.71,-66.62C318.33,-57.06 285.95,-39.25 264.37,-27.38"/>
<polygon fill="green" stroke="green" stroke-width="0.27" points="266.11,-24.35 255.66,-22.6 262.74,-30.48 266.11,-24.35"/>
</g>
<!-- &#45;10 -->
<g id="node10" class="node">
<title>&#45;10</title>
<polygon fill="lightgray" stroke="black" points="405.75,-83.49 377.75,-83.49 377.75,-64.99 405.75,-64.99 405.75,-83.49"/>
<text text-anchor="middle" x="391.75" y="-70.94" font-family="Times New Roman,serif" font-size="9.00">&#45;10</text>
</g>
<!-- &#45;10&#45;&gt;0 -->
<g id="edge10" class="edge">
<title>&#45;10&#45;&gt;0</title>
<path fill="none" stroke="red" stroke-width="1.05" d="M377.46,-67.7C351.9,-57.8 298.1,-36.95 266.78,-24.81"/>
<polygon fill="red" stroke="red" stroke-width="1.05" points="268.41,-21.69 257.82,-21.34 265.88,-28.21 268.41,-21.69"/>
</g>
<!-- &#45;11 -->
<g id="node11" class="node">
<title>&#45;11</title>
<polygon fill="lightgray" stroke="black" points="451.75,-83.49 423.75,-83.49 423.75,-64.99 451.75,-64.99 451.75,-83.49"/>
<text text-anchor="middle" x="437.75" y="-70.94" font-family="Times New Roman,serif" font-size="9.00">&#45;11</text>
</g>
<!-- &#45;11&#45;&gt;0 -->
<g id="edge11" class="edge">
<title>&#45;11&#45;&gt;0</title>
<path fill="none" stroke="red" stroke-width="0.3" stroke-dasharray="1,5" d="M423.69,-68.04C420.75,-66.99 417.66,-65.93 414.75,-64.99 362.19,-48.02 299.69,-30.75 266.4,-21.78"/>
<polygon fill="red" stroke="red" stroke-width="0.3" points="267.67,-18.5 257.1,-19.29 265.86,-25.26 267.67,-18.5"/>
</g>
<!-- &#45;12 -->
<g id="node12" class="node">
<title>&#45;12</title>
<polygon fill="lightgray" stroke="black" points="497.75,-83.49 469.75,-83.49 469.75,-64.99 497.75,-64.99 497.75,-83.49"/>
<text text-anchor="middle" x="483.75" y="-70.94" font-family="Times New Roman,serif" font-size="9.00">&#45;12</text>
</g>
<!-- &#45;12&#45;&gt;0 -->
<g id="edge12" class="edge">
<title>&#45;12&#45;&gt;0</title>
<path fill="none" stroke="green" stroke-width="0.16" d="M469.73,-67.91C466.78,-66.87 463.68,-65.85 460.75,-64.99 391.47,-44.78 307.82,-27.82 267.22,-20.05"/>
<polygon fill="green" stroke="green" stroke-width="0.16" points="267.9,-16.61 257.42,-18.19 266.6,-23.49 267.9,-16.61"/>
</g>
</g>
</svg>
