<?xml version="1.0" encoding="UTF-8" standalone="no"?>
<!DOCTYPE svg PUBLIC "-//W3C//DTD SVG 1.1//EN"
 "http://www.w3.org/Graphics/SVG/1.1/DTD/svg11.dtd">
<!-- Generated by graphviz version 12.2.1 (20241206.2353)
 -->
<!-- Pages: 1 -->
<svg width="116pt" height="91pt"
 viewBox="0.00 0.00 115.50 91.49" xmlns="http://www.w3.org/2000/svg" xmlns:xlink="http://www.w3.org/1999/xlink">
<g id="graph0" class="graph" transform="scale(1 1) rotate(0) translate(4 87.49)">
<polygon fill="white" stroke="none" points="-4,4 -4,-87.49 111.5,-87.49 111.5,4 -4,4"/>
<!-- &#45;1 -->
<g id="node1" class="node">
<title>&#45;1</title>
<polygon fill="lightgray" stroke="black" points="23.5,-83.49 0,-83.49 0,-64.99 23.5,-64.99 23.5,-83.49"/>
<text text-anchor="middle" x="11.75" y="-70.94" font-family="Times New Roman,serif" font-size="9.00">&#45;1</text>
</g>
<!-- 0 -->
<g id="node4" class="node">
<title>0</title>
<ellipse fill="lightblue" stroke="black" cx="53.75" cy="-14.5" rx="14.5" ry="14.5"/>
<text text-anchor="middle" x="53.75" y="-11.2" font-family="Times New Roman,serif" font-size="9.00">0</text>
</g>
<!-- &#45;1&#45;&gt;0 -->
<g id="edge1" class="edge">
<title>&#45;1&#45;&gt;0</title>
<path fill="none" stroke="red" stroke-width="1.14" d="M17.95,-64.72C23.42,-57.19 31.63,-45.9 38.81,-36.04"/>
<polygon fill="red" stroke="red" stroke-width="1.14" points="41.44,-38.38 44.49,-28.23 35.77,-34.26 41.44,-38.38"/>
</g>
<!-- &#45;2 -->
<g id="node2" class="node">
<title>&#45;2</title>
<polygon fill="lightgray" stroke="black" points="65.5,-83.49 42,-83.49 42,-64.99 65.5,-64.99 65.5,-83.49"/>
<text text-anchor="middle" x="53.75" y="-70.94" font-family="Times New Roman,serif" font-size="9.00">&#45;2</text>
</g>
<!-- &#45;2&#45;&gt;0 -->
<g id="edge2" class="edge">
<title>&#45;2&#45;&gt;0</title>
<path fill="none" stroke="green" stroke-width="0.13" stroke-dasharray="1,5" d="M53.75,-64.72C53.75,-58.05 53.75,-48.42 53.75,-39.45"/>
<polygon fill="green" stroke="green" stroke-width="0.13" points="57.25,-39.62 53.75,-29.62 50.25,-39.62 57.25,-39.62"/>
</g>
<!-- &#45;3 -->
<g id="node3" class="node">
<title>&#45;3</title>
<polygon fill="lightgray" stroke="black" points="107.5,-83.49 84,-83.49 84,-64.99 107.5,-64.99 107.5,-83.49"/>
<text text-anchor="middle" x="95.75" y="-70.94" font-family="Times New Roman,serif" font-size="9.00">&#45;3</text>
</g>
<!-- &#45;3&#45;&gt;0 -->
<g id="edge3" class="edge">
<title>&#45;3&#45;&gt;0</title>
<path fill="none" stroke="green" stroke-width="0.37" d="M89.55,-64.72C83.91,-56.96 75.35,-45.2 68.02,-35.12"/>
<polygon fill="green" stroke="green" stroke-width="0.37" points="71.04,-33.31 62.33,-27.29 65.38,-37.43 71.04,-33.31"/>
</g>
</g>
</svg>
