<?xml version="1.0" encoding="UTF-8" standalone="no"?>
<!DOCTYPE svg PUBLIC "-//W3C//DTD SVG 1.1//EN"
 "http://www.w3.org/Graphics/SVG/1.1/DTD/svg11.dtd">
<!-- Generated by graphviz version 12.2.1 (20241206.2353)
 -->
<!-- Pages: 1 -->
<svg width="535pt" height="163pt"
 viewBox="0.00 0.00 535.26 162.85" xmlns="http://www.w3.org/2000/svg" xmlns:xlink="http://www.w3.org/1999/xlink">
<g id="graph0" class="graph" transform="scale(1 1) rotate(0) translate(4 158.85)">
<polygon fill="white" stroke="none" points="-4,4 -4,-158.85 531.26,-158.85 531.26,4 -4,4"/>
<!-- &#45;1 -->
<g id="node1" class="node">
<title>&#45;1</title>
<polygon fill="lightgray" stroke="black" points="25.01,-154.85 1.51,-154.85 1.51,-136.35 25.01,-136.35 25.01,-154.85"/>
<text text-anchor="middle" x="13.26" y="-142.3" font-family="Times New Roman,serif" font-size="9.00">&#45;1</text>
</g>
<!-- 0 -->
<g id="node13" class="node">
<title>0</title>
<ellipse fill="lightblue" stroke="black" cx="251.26" cy="-14.5" rx="14.5" ry="14.5"/>
<text text-anchor="middle" x="251.26" y="-11.2" font-family="Times New Roman,serif" font-size="9.00">0</text>
</g>
<!-- &#45;1&#45;&gt;0 -->
<g id="edge1" class="edge">
<title>&#45;1&#45;&gt;0</title>
<path fill="none" stroke="red" stroke-width="0.42" d="M9.48,-136.02C3.11,-120.06 -7.54,-85.57 9.26,-64.99 36.46,-31.66 169.72,-20.17 226.05,-16.76"/>
<polygon fill="red" stroke="red" stroke-width="0.42" points="226.11,-20.26 235.89,-16.2 225.71,-13.27 226.11,-20.26"/>
</g>
<!-- 75 -->
<g id="node14" class="node">
<title>75</title>
<ellipse fill="white" stroke="black" cx="36.26" cy="-82.67" rx="17.68" ry="17.68"/>
<text text-anchor="middle" x="36.26" y="-79.37" font-family="Times New Roman,serif" font-size="9.00">75</text>
</g>
<!-- &#45;1&#45;&gt;75 -->
<g id="edge13" class="edge">
<title>&#45;1&#45;&gt;75</title>
<path fill="none" stroke="green" stroke-width="0.3" d="M16.55,-135.87C19.21,-128.83 23.08,-118.58 26.69,-109.01"/>
<polygon fill="green" stroke="green" stroke-width="0.3" points="29.88,-110.48 30.14,-99.88 23.33,-108 29.88,-110.48"/>
</g>
<!-- &#45;2 -->
<g id="node2" class="node">
<title>&#45;2</title>
<polygon fill="lightgray" stroke="black" points="95.01,-91.92 71.51,-91.92 71.51,-73.42 95.01,-73.42 95.01,-91.92"/>
<text text-anchor="middle" x="83.26" y="-79.37" font-family="Times New Roman,serif" font-size="9.00">&#45;2</text>
</g>
<!-- &#45;2&#45;&gt;0 -->
<g id="edge2" class="edge">
<title>&#45;2&#45;&gt;0</title>
<path fill="none" stroke="red" stroke-width="0.51" d="M92.59,-73.12C96.07,-70.25 100.17,-67.22 104.26,-64.99 144.75,-42.98 196.79,-28.28 226.85,-20.95"/>
<polygon fill="red" stroke="red" stroke-width="0.51" points="227.55,-24.38 236.48,-18.68 225.95,-17.57 227.55,-24.38"/>
</g>
<!-- &#45;3 -->
<g id="node3" class="node">
<title>&#45;3</title>
<polygon fill="lightgray" stroke="black" points="137.01,-91.92 113.51,-91.92 113.51,-73.42 137.01,-73.42 137.01,-91.92"/>
<text text-anchor="middle" x="125.26" y="-79.37" font-family="Times New Roman,serif" font-size="9.00">&#45;3</text>
</g>
<!-- &#45;3&#45;&gt;0 -->
<g id="edge3" class="edge">
<title>&#45;3&#45;&gt;0</title>
<path fill="none" stroke="red" stroke-width="0.78" d="M135.16,-73.03C138.56,-70.28 142.46,-67.35 146.26,-64.99 172.79,-48.51 205.68,-33.84 227.51,-24.84"/>
<polygon fill="red" stroke="red" stroke-width="0.78" points="228.77,-28.1 236.73,-21.1 226.14,-21.61 228.77,-28.1"/>
</g>
<!-- &#45;4 -->
<g id="node4" class="node">
<title>&#45;4</title>
<polygon fill="lightgray" stroke="black" points="179.01,-91.92 155.51,-91.92 155.51,-73.42 179.01,-73.42 179.01,-91.92"/>
<text text-anchor="middle" x="167.26" y="-79.37" font-family="Times New Roman,serif" font-size="9.00">&#45;4</text>
</g>
<!-- &#45;4&#45;&gt;0 -->
<g id="edge4" class="edge">
<title>&#45;4&#45;&gt;0</title>
<path fill="none" stroke="red" stroke-width="0.51" d="M177.93,-73.17C181.24,-70.55 184.9,-67.65 188.26,-64.99 202.84,-53.47 219.35,-40.5 231.82,-30.73"/>
<polygon fill="red" stroke="red" stroke-width="0.51" points="233.77,-33.64 239.48,-24.72 229.45,-28.13 233.77,-33.64"/>
</g>
<!-- &#45;5 -->
<g id="node5" class="node">
<title>&#45;5</title>
<polygon fill="lightgray" stroke="black" points="221.01,-91.92 197.51,-91.92 197.51,-73.42 221.01,-73.42 221.01,-91.92"/>
<text text-anchor="middle" x="209.26" y="-79.37" font-family="Times New Roman,serif" font-size="9.00">&#45;5</text>
</g>
<!-- &#45;5&#45;&gt;0 -->
<g id="edge5" class="edge">
<title>&#45;5&#45;&gt;0</title>
<path fill="none" stroke="green" stroke-width="0.37" d="M214.75,-73.02C220.7,-63.64 230.41,-48.34 238.32,-35.87"/>
<polygon fill="green" stroke="green" stroke-width="0.37" points="241.23,-37.83 243.63,-27.51 235.32,-34.08 241.23,-37.83"/>
</g>
<!-- &#45;6 -->
<g id="node6" class="node">
<title>&#45;6</title>
<polygon fill="lightgray" stroke="black" points="263.01,-91.92 239.51,-91.92 239.51,-73.42 263.01,-73.42 263.01,-91.92"/>
<text text-anchor="middle" x="251.26" y="-79.37" font-family="Times New Roman,serif" font-size="9.00">&#45;6</text>
</g>
<!-- &#45;6&#45;&gt;0 -->
<g id="edge6" class="edge">
<title>&#45;6&#45;&gt;0</title>
<path fill="none" stroke="green" stroke-width="0.24" d="M251.26,-73.02C251.26,-64.54 251.26,-51.23 251.26,-39.55"/>
<polygon fill="green" stroke="green" stroke-width="0.24" points="254.76,-39.83 251.26,-29.83 247.76,-39.83 254.76,-39.83"/>
</g>
<!-- &#45;7 -->
<g id="node7" class="node">
<title>&#45;7</title>
<polygon fill="lightgray" stroke="black" points="305.01,-91.92 281.51,-91.92 281.51,-73.42 305.01,-73.42 305.01,-91.92"/>
<text text-anchor="middle" x="293.26" y="-79.37" font-family="Times New Roman,serif" font-size="9.00">&#45;7</text>
</g>
<!-- &#45;7&#45;&gt;0 -->
<g id="edge7" class="edge">
<title>&#45;7&#45;&gt;0</title>
<path fill="none" stroke="red" stroke-width="0.62" d="M287.77,-73.02C281.87,-63.73 272.29,-48.64 264.42,-36.24"/>
<polygon fill="red" stroke="red" stroke-width="0.62" points="267.4,-34.41 259.09,-27.84 261.49,-38.16 267.4,-34.41"/>
</g>
<!-- &#45;8 -->
<g id="node8" class="node">
<title>&#45;8</title>
<polygon fill="lightgray" stroke="black" points="347.01,-91.92 323.51,-91.92 323.51,-73.42 347.01,-73.42 347.01,-91.92"/>
<text text-anchor="middle" x="335.26" y="-79.37" font-family="Times New Roman,serif" font-size="9.00">&#45;8</text>
</g>
<!-- &#45;8&#45;&gt;0 -->
<g id="edge8" class="edge">
<title>&#45;8&#45;&gt;0</title>
<path fill="none" stroke="red" stroke-width="0.11" d="M324.58,-73.17C321.28,-70.55 317.62,-67.65 314.26,-64.99 299.54,-53.36 282.84,-40.25 270.34,-30.44"/>
<polygon fill="red" stroke="red" stroke-width="0.11" points="272.58,-27.76 262.55,-24.34 268.26,-33.26 272.58,-27.76"/>
</g>
<!-- &#45;9 -->
<g id="node9" class="node">
<title>&#45;9</title>
<polygon fill="lightgray" stroke="black" points="389.01,-91.92 365.51,-91.92 365.51,-73.42 389.01,-73.42 389.01,-91.92"/>
<text text-anchor="middle" x="377.26" y="-79.37" font-family="Times New Roman,serif" font-size="9.00">&#45;9</text>
</g>
<!-- &#45;9&#45;&gt;0 -->
<g id="edge9" class="edge">
<title>&#45;9&#45;&gt;0</title>
<path fill="none" stroke="red" stroke-width="0.44" d="M367.35,-73.03C363.96,-70.28 360.05,-67.35 356.26,-64.99 329.48,-48.36 296.23,-33.57 274.41,-24.59"/>
<polygon fill="red" stroke="red" stroke-width="0.44" points="275.89,-21.41 265.31,-20.91 273.27,-27.9 275.89,-21.41"/>
</g>
<!-- &#45;10 -->
<g id="node10" class="node">
<title>&#45;10</title>
<polygon fill="lightgray" stroke="black" points="435.26,-91.92 407.26,-91.92 407.26,-73.42 435.26,-73.42 435.26,-91.92"/>
<text text-anchor="middle" x="421.26" y="-79.37" font-family="Times New Roman,serif" font-size="9.00">&#45;10</text>
</g>
<!-- &#45;10&#45;&gt;0 -->
<g id="edge10" class="edge">
<title>&#45;10&#45;&gt;0</title>
<path fill="none" stroke="green" stroke-width="0.14" d="M410.93,-73.16C407.11,-70.29 402.64,-67.25 398.26,-64.99 357.15,-43.79 305.04,-28.76 275.19,-21.16"/>
<polygon fill="green" stroke="green" stroke-width="0.14" points="276.37,-17.85 265.82,-18.84 274.68,-24.64 276.37,-17.85"/>
</g>
<!-- &#45;11 -->
<g id="node11" class="node">
<title>&#45;11</title>
<polygon fill="lightgray" stroke="black" points="481.26,-91.92 453.26,-91.92 453.26,-73.42 481.26,-73.42 481.26,-91.92"/>
<text text-anchor="middle" x="467.26" y="-79.37" font-family="Times New Roman,serif" font-size="9.00">&#45;11</text>
</g>
<!-- &#45;11&#45;&gt;0 -->
<g id="edge11" class="edge">
<title>&#45;11&#45;&gt;0</title>
<path fill="none" stroke="green" stroke-width="0.24" d="M457.02,-72.97C453.21,-70.09 448.72,-67.09 444.26,-64.99 387.27,-38.22 313.74,-24.49 276.01,-18.8"/>
<polygon fill="green" stroke="green" stroke-width="0.24" points="276.69,-15.36 266.29,-17.39 275.69,-22.29 276.69,-15.36"/>
</g>
<!-- &#45;12 -->
<g id="node12" class="node">
<title>&#45;12</title>
<polygon fill="lightgray" stroke="black" points="527.26,-91.92 499.26,-91.92 499.26,-73.42 527.26,-73.42 527.26,-91.92"/>
<text text-anchor="middle" x="513.26" y="-79.37" font-family="Times New Roman,serif" font-size="9.00">&#45;12</text>
</g>
<!-- &#45;12&#45;&gt;0 -->
<g id="edge12" class="edge">
<title>&#45;12&#45;&gt;0</title>
<path fill="none" stroke="green" stroke-width="0.36" d="M503.52,-73.2C499.63,-70.2 494.95,-67.06 490.26,-64.99 416.8,-32.56 321.13,-21.02 276.39,-17.21"/>
<polygon fill="green" stroke="green" stroke-width="0.36" points="276.7,-13.73 266.45,-16.43 276.15,-20.71 276.7,-13.73"/>
</g>
<!-- 75&#45;&gt;0 -->
<g id="edge14" class="edge">
<title>75&#45;&gt;0</title>
<path fill="none" stroke="green" stroke-width="0.12" d="M50.38,-71.48C54.12,-69.1 58.23,-66.76 62.26,-64.99 118.8,-40.2 190.49,-25.64 227.2,-19.29"/>
<polygon fill="green" stroke="green" stroke-width="0.12" points="227.54,-22.79 236.82,-17.68 226.38,-15.88 227.54,-22.79"/>
</g>
</g>
</svg>
