<?xml version="1.0" encoding="UTF-8" standalone="no"?>
<!DOCTYPE svg PUBLIC "-//W3C//DTD SVG 1.1//EN"
 "http://www.w3.org/Graphics/SVG/1.1/DTD/svg11.dtd">
<!-- Generated by graphviz version 12.2.1 (20241206.2353)
 -->
<!-- Pages: 1 -->
<svg width="214pt" height="169pt"
 viewBox="0.00 0.00 213.50 169.21" xmlns="http://www.w3.org/2000/svg" xmlns:xlink="http://www.w3.org/1999/xlink">
<g id="graph0" class="graph" transform="scale(1 1) rotate(0) translate(4 165.21)">
<polygon fill="white" stroke="none" points="-4,4 -4,-165.21 209.5,-165.21 209.5,4 -4,4"/>
<!-- &#45;1 -->
<g id="node1" class="node">
<title>&#45;1</title>
<polygon fill="lightgray" stroke="black" points="23.5,-95.1 0,-95.1 0,-76.6 23.5,-76.6 23.5,-95.1"/>
<text text-anchor="middle" x="11.75" y="-82.55" font-family="Times New Roman,serif" font-size="9.00">&#45;1</text>
</g>
<!-- 0 -->
<g id="node5" class="node">
<title>0</title>
<ellipse fill="lightblue" stroke="black" cx="100.75" cy="-14.5" rx="14.5" ry="14.5"/>
<text text-anchor="middle" x="100.75" y="-11.2" font-family="Times New Roman,serif" font-size="9.00">0</text>
</g>
<!-- &#45;1&#45;&gt;0 -->
<g id="edge1" class="edge">
<title>&#45;1&#45;&gt;0</title>
<path fill="none" stroke="red" stroke-width="0.78" d="M22.66,-76.35C37.13,-65.07 62.92,-44.98 80.89,-30.98"/>
<polygon fill="red" stroke="red" stroke-width="0.78" points="82.79,-33.93 88.53,-25.02 78.49,-28.4 82.79,-33.93"/>
</g>
<!-- &#45;2 -->
<g id="node2" class="node">
<title>&#45;2</title>
<polygon fill="lightgray" stroke="black" points="87.5,-161.21 64,-161.21 64,-142.71 87.5,-142.71 87.5,-161.21"/>
<text text-anchor="middle" x="75.75" y="-148.66" font-family="Times New Roman,serif" font-size="9.00">&#45;2</text>
</g>
<!-- &#45;2&#45;&gt;0 -->
<g id="edge2" class="edge">
<title>&#45;2&#45;&gt;0</title>
<path fill="none" stroke="red" stroke-width="0.24" stroke-dasharray="1,5" d="M73.4,-142.22C69.56,-126.45 63.11,-92.35 70.75,-64.99 73.8,-54.07 79.99,-43.17 85.96,-34.38"/>
<polygon fill="red" stroke="red" stroke-width="0.24" points="88.72,-36.54 91.74,-26.38 83.04,-32.44 88.72,-36.54"/>
</g>
<!-- 231 -->
<g id="node6" class="node">
<title>231</title>
<ellipse fill="white" stroke="black" cx="100.75" cy="-85.85" rx="20.86" ry="20.86"/>
<text text-anchor="middle" x="100.75" y="-82.55" font-family="Times New Roman,serif" font-size="9.00">231</text>
</g>
<!-- &#45;2&#45;&gt;231 -->
<g id="edge5" class="edge">
<title>&#45;2&#45;&gt;231</title>
<path fill="none" stroke="red" stroke-width="0.16" d="M79.12,-142.31C81.84,-135.34 85.83,-125.12 89.64,-115.35"/>
<polygon fill="red" stroke="red" stroke-width="0.16" points="92.88,-116.67 93.25,-106.08 86.36,-114.13 92.88,-116.67"/>
</g>
<!-- &#45;3 -->
<g id="node3" class="node">
<title>&#45;3</title>
<polygon fill="lightgray" stroke="black" points="163.5,-95.1 140,-95.1 140,-76.6 163.5,-76.6 163.5,-95.1"/>
<text text-anchor="middle" x="151.75" y="-82.55" font-family="Times New Roman,serif" font-size="9.00">&#45;3</text>
</g>
<!-- &#45;3&#45;&gt;0 -->
<g id="edge3" class="edge">
<title>&#45;3&#45;&gt;0</title>
<path fill="none" stroke="green" stroke-width="0.27" d="M145.5,-76.35C137.99,-66.14 125.17,-48.7 115.17,-35.1"/>
<polygon fill="green" stroke="green" stroke-width="0.27" points="118.07,-33.15 109.33,-27.16 112.44,-37.29 118.07,-33.15"/>
</g>
<!-- &#45;4 -->
<g id="node4" class="node">
<title>&#45;4</title>
<polygon fill="lightgray" stroke="black" points="205.5,-95.1 182,-95.1 182,-76.6 205.5,-76.6 205.5,-95.1"/>
<text text-anchor="middle" x="193.75" y="-82.55" font-family="Times New Roman,serif" font-size="9.00">&#45;4</text>
</g>
<!-- &#45;4&#45;&gt;0 -->
<g id="edge4" class="edge">
<title>&#45;4&#45;&gt;0</title>
<path fill="none" stroke="red" stroke-width="0.69" d="M185.44,-76.42C181.69,-72.77 177.12,-68.52 172.75,-64.99 156.46,-51.82 136.79,-38.45 122.12,-28.94"/>
<polygon fill="red" stroke="red" stroke-width="0.69" points="124.06,-26.02 113.75,-23.57 120.29,-31.91 124.06,-26.02"/>
</g>
<!-- 231&#45;&gt;0 -->
<g id="edge6" class="edge">
<title>231&#45;&gt;0</title>
<path fill="none" stroke="green" stroke-width="0.39" d="M100.75,-64.79C100.75,-56.98 100.75,-47.96 100.75,-39.78"/>
<polygon fill="green" stroke="green" stroke-width="0.39" points="104.25,-39.94 100.75,-29.94 97.25,-39.94 104.25,-39.94"/>
</g>
</g>
</svg>
